# Blender 4.5.4 LTS
# www.blender.org
mtllib ACTIVIDADN17.mtl
o Cube.003
v -0.647492 3.368551 -6.503283
v -0.647492 3.368551 -3.818628
v -0.647492 -0.631449 -6.503283
v -0.647492 -0.631449 -3.818628
v -0.272925 -0.631449 -3.760955
v -0.546051 -0.631449 -3.787856
v -0.546051 -0.631449 -6.534055
v 0.262832 -0.631449 -3.867524
v 0.262832 -0.631449 -6.454387
v 0.000202 -0.631449 -3.787856
v 0.000202 -0.631449 -6.534055
v -0.272925 -0.631449 -6.560956
v 0.891132 -0.631449 -5.938754
v 0.717025 -0.631449 -4.171006
v 0.717025 -0.631449 -6.150905
v 1.020506 -0.631449 -4.625198
v 1.127075 -0.631449 -5.160955
v 1.100174 -0.631449 -4.887829
v 1.100174 -0.631449 -5.434082
v 1.020506 -0.631449 -5.696712
v 0.504873 -0.631449 -3.996898
v 0.891132 -0.631449 -4.383157
v 0.504873 -0.631449 -6.325013
v -0.546051 3.368551 -3.787856
v 0.000202 3.368551 -6.534055
v -0.272925 3.368551 -6.560956
v -0.546051 3.368551 -6.534055
v 0.717025 3.368551 -6.150905
v 0.504873 3.368551 -6.325013
v 1.100174 3.368551 -5.434082
v 1.020506 3.368551 -5.696712
v 0.891132 3.368551 -5.938754
v 0.262832 3.368551 -6.454387
v 0.000202 3.368551 -3.787856
v -0.272925 3.368551 -3.760955
v 0.262832 3.368551 -3.867524
v 0.504873 3.368551 -3.996898
v 0.891132 3.368551 -4.383157
v 1.020506 3.368551 -4.625198
v 1.127075 3.368551 -5.160955
v 1.100174 3.368551 -4.887829
v 0.717025 3.368551 -4.171006
v 2.105156 5.432146 -2.127753
v 0.124959 -0.567854 -1.527753
v 2.105156 1.432146 -2.127753
v 0.124959 7.432146 -1.527753
v 2.105156 5.432146 1.872247
v 0.395381 -0.567854 -1.500853
v 2.105156 1.432146 1.872247
v 0.395381 7.432146 -1.500853
v -1.855240 5.432146 -2.127753
v 0.655411 -0.567854 -1.421185
v -1.855240 1.432146 -2.127753
v 0.655411 7.432146 -1.421185
v -1.855240 5.432146 1.872247
v 0.895056 -0.567854 -1.291811
v -1.855240 1.432146 1.872247
v 0.895056 7.432146 -1.291811
v 1.105107 -0.567854 -1.117703
v 1.105107 7.432146 -1.117703
v 1.277491 -0.567854 -0.905551
v 1.277491 7.432146 -0.905551
v 1.405584 -0.567854 -0.663510
v 1.405584 7.432146 -0.663510
v 1.484463 -0.567854 -0.400880
v 1.484463 7.432146 -0.400880
v 1.511097 -0.567854 -0.127753
v 1.511097 7.432146 -0.127753
v 1.484463 -0.567854 0.145373
v 1.484463 7.432146 0.145373
v 1.405584 -0.567854 0.408003
v 1.405584 7.432146 0.408003
v 1.277491 -0.567854 0.650045
v 1.277491 7.432146 0.650045
v 1.105107 -0.567854 0.862196
v 1.105107 7.432146 0.862196
v 0.895056 -0.567854 1.036304
v 0.895056 7.432146 1.036304
v 0.655411 -0.567854 1.165678
v 0.655411 7.432146 1.165678
v 0.395381 -0.567854 1.245346
v 0.395381 7.432146 1.245346
v 0.124959 -0.567854 1.272247
v 0.124959 7.432146 1.272247
v -0.145464 -0.567854 1.245346
v -0.145464 7.432146 1.245346
v -0.405494 -0.567854 1.165678
v -0.405494 7.432146 1.165678
v -0.645139 -0.567854 1.036304
v -0.645139 7.432146 1.036304
v -0.855190 -0.567854 0.862196
v -0.855190 7.432146 0.862196
v -1.027574 -0.567854 0.650045
v -1.027574 7.432146 0.650045
v -1.155667 -0.567854 0.408003
v -1.155667 7.432146 0.408003
v -1.234546 -0.567854 0.145373
v -1.234546 7.432146 0.145373
v -1.261180 -0.567854 -0.127753
v -1.261180 7.432146 -0.127753
v -1.234546 -0.567854 -0.400880
v -1.234546 7.432146 -0.400880
v -1.155667 -0.567854 -0.663510
v -1.155667 7.432146 -0.663510
v -1.027574 -0.567854 -0.905551
v -1.027574 7.432146 -0.905551
v -0.855190 -0.567854 -1.117703
v -0.855190 7.432146 -1.117703
v -0.645139 -0.567854 -1.291811
v -0.645139 7.432146 -1.291811
v -0.405494 -0.567854 -1.421185
v -0.405494 7.432146 -1.421185
v -0.145464 -0.567854 -1.500853
v -0.145464 7.432146 -1.500853
v -1.261180 5.432146 -0.127753
v -1.234546 5.432146 -0.400880
v -1.234546 5.432146 0.145373
v -1.027574 5.432146 0.650045
v -1.027574 5.432146 -0.905551
v -0.855190 5.432146 0.862196
v -1.155667 5.432146 0.408003
v -1.155667 5.432146 -0.663510
v -0.645139 5.432146 -1.291811
v -0.145464 5.432146 -1.500853
v -0.405494 5.432146 -1.421185
v 0.395381 5.432146 -1.500853
v 1.105107 5.432146 -1.117703
v 0.895056 5.432146 -1.291811
v 0.655411 5.432146 -1.421185
v 0.124959 5.432146 -1.527753
v -0.855190 5.432146 -1.117703
v -0.645139 5.432146 1.036304
v -0.145464 5.432146 1.245346
v -0.405494 5.432146 1.165678
v 0.395381 5.432146 1.245346
v 0.895056 5.432146 1.036304
v 0.655411 5.432146 1.165678
v 0.124959 5.432146 1.272247
v 1.277491 5.432146 0.650045
v 1.277491 5.432146 -0.905551
v 1.511097 5.432146 -0.127753
v 1.484463 5.432146 0.145373
v 1.484463 5.432146 -0.400880
v 1.405584 5.432146 0.408003
v 1.405584 5.432146 -0.663510
v 1.105107 5.432146 0.862196
v -0.855190 1.432146 -1.117703
v -0.645139 1.432146 -1.291811
v -0.145464 1.432146 -1.500853
v -0.405494 1.432146 -1.421185
v 0.395381 1.432146 -1.500853
v 0.895056 1.432146 -1.291811
v 0.655411 1.432146 -1.421185
v 1.105107 1.432146 0.862196
v 0.124959 1.432146 -1.527753
v 1.277491 1.432146 0.650045
v 1.277491 1.432146 -0.905551
v 1.511097 1.432146 -0.127753
v 1.484463 1.432146 0.145373
v 1.484463 1.432146 -0.400880
v 1.405584 1.432146 0.408003
v 1.405584 1.432146 -0.663510
v 1.105107 1.432146 -1.117703
v -1.261180 1.432146 -0.127753
v -1.234546 1.432146 0.145373
v -1.234546 1.432146 -0.400880
v -1.027574 1.432146 0.650045
v -1.027574 1.432146 -0.905551
v -0.855190 1.432146 0.862196
v -1.155667 1.432146 0.408003
v -1.155667 1.432146 -0.663510
v -0.645139 1.432146 1.036304
v -0.145464 1.432146 1.245346
v -0.405494 1.432146 1.165678
v 0.395381 1.432146 1.245346
v 0.895056 1.432146 1.036304
v 0.655411 1.432146 1.165678
v 0.124959 1.432146 1.272247
v -1.833980 -0.678115 7.770669
v -1.833980 3.321885 7.770669
v -1.833980 -0.678115 3.770669
v -1.833980 3.321885 3.770669
v 2.126416 -0.678115 7.770669
v 2.126416 3.321885 7.770669
v 2.126416 -0.678115 3.770669
v 2.126416 3.321885 3.770669
v -0.833930 -0.678115 4.780719
v -0.623880 -0.678115 4.606611
v -0.124204 -0.678115 4.397569
v -0.384234 -0.678115 4.477237
v 0.416640 -0.678115 4.397569
v 0.916315 -0.678115 4.606611
v 0.676670 -0.678115 4.477237
v 1.126366 -0.678115 6.760618
v 0.146218 -0.678115 4.370669
v 1.298750 -0.678115 6.548467
v 1.298750 -0.678115 4.992870
v 1.532356 -0.678115 5.770669
v 1.505722 -0.678115 6.043795
v 1.505722 -0.678115 5.497542
v 1.426843 -0.678115 6.306426
v 1.426843 -0.678115 5.234911
v 1.126366 -0.678115 4.780719
v -1.239921 -0.678115 5.770669
v -1.213287 -0.678115 6.043795
v -1.213287 -0.678115 5.497542
v -1.006314 -0.678115 6.548467
v -1.006314 -0.678115 4.992870
v -0.833930 -0.678115 6.760618
v -1.134407 -0.678115 6.306426
v -1.134407 -0.678115 5.234911
v -0.623880 -0.678115 6.934726
v -0.124204 -0.678115 7.143768
v -0.384234 -0.678115 7.064100
v 0.416640 -0.678115 7.143768
v 0.916315 -0.678115 6.934726
v 0.676670 -0.678115 7.064100
v 0.146218 -0.678115 7.170668
v -1.239921 3.321885 5.770669
v -1.213287 3.321885 5.497542
v -1.213287 3.321885 6.043795
v -1.006314 3.321885 6.548467
v -1.006314 3.321885 4.992870
v -0.833930 3.321885 6.760618
v -1.134407 3.321885 6.306426
v -1.134407 3.321885 5.234911
v -0.623880 3.321885 4.606611
v -0.124204 3.321885 4.397569
v -0.384234 3.321885 4.477237
v 0.416640 3.321885 4.397569
v 1.126366 3.321885 4.780719
v 0.916315 3.321885 4.606611
v 0.676670 3.321885 4.477237
v 0.146218 3.321885 4.370669
v -0.833930 3.321885 4.780719
v -0.623880 3.321885 6.934726
v -0.124204 3.321885 7.143768
v -0.384234 3.321885 7.064100
v 0.416640 3.321885 7.143768
v 0.916315 3.321885 6.934726
v 0.676670 3.321885 7.064100
v 0.146218 3.321885 7.170668
v 1.298750 3.321885 6.548467
v 1.298750 3.321885 4.992870
v 1.532356 3.321885 5.770669
v 1.505722 3.321885 6.043795
v 1.505722 3.321885 5.497542
v 1.426843 3.321885 6.306426
v 1.426843 3.321885 5.234911
v 1.126366 3.321885 6.760618
vn -1.0000 -0.0000 -0.0000
vn -0.0000 -1.0000 -0.0000
vn -0.0000 1.0000 -0.0000
vn 0.0980 -0.0000 -0.9952
vn 0.2903 -0.0000 -0.9569
vn 0.4714 -0.0000 -0.8819
vn 0.6344 -0.0000 -0.7730
vn 0.7730 -0.0000 -0.6344
vn 0.8819 -0.0000 -0.4714
vn 0.9569 -0.0000 -0.2903
vn 0.9952 -0.0000 -0.0980
vn 0.9952 -0.0000 0.0980
vn 0.9569 -0.0000 0.2903
vn 0.8819 -0.0000 0.4714
vn 0.7730 -0.0000 0.6344
vn 0.6344 -0.0000 0.7730
vn 0.4714 -0.0000 0.8819
vn 0.2903 -0.0000 0.9569
vn 0.0980 -0.0000 0.9952
vn -0.0980 -0.0000 0.9952
vn -0.2903 -0.0000 0.9569
vn -0.2903 -0.0000 -0.9569
vn -0.0980 -0.0000 -0.9952
vn -0.0000 -0.0000 1.0000
vn 1.0000 -0.0000 -0.0000
vn -0.0000 -0.0000 -1.0000
vn 0.0990 -0.0000 -0.9951
vn 0.2929 -0.0000 -0.9561
vn 0.4751 -0.0000 -0.8800
vn 0.6382 -0.0000 -0.7699
vn 0.7761 -0.0000 -0.6306
vn 0.8839 -0.0000 -0.4678
vn 0.9577 -0.0000 -0.2877
vn 0.9953 -0.0000 -0.0971
vn 0.9953 -0.0000 0.0971
vn 0.9577 -0.0000 0.2877
vn 0.8839 -0.0000 0.4678
vn 0.7761 -0.0000 0.6306
vn 0.6382 -0.0000 0.7699
vn 0.4751 -0.0000 0.8800
vn 0.2929 -0.0000 0.9561
vn 0.0990 -0.0000 0.9951
vn -0.0990 -0.0000 0.9951
vn -0.2929 -0.0000 0.9561
vn -0.4751 -0.0000 0.8800
vn -0.6382 -0.0000 0.7699
vn -0.7761 -0.0000 0.6306
vn -0.8839 -0.0000 0.4678
vn -0.9577 -0.0000 0.2877
vn -0.9953 -0.0000 0.0971
vn -0.9953 -0.0000 -0.0971
vn -0.9577 -0.0000 -0.2877
vn -0.8839 -0.0000 -0.4678
vn -0.7761 -0.0000 -0.6306
vn -0.6382 -0.0000 -0.7699
vn -0.4751 -0.0000 -0.8800
vn -0.2929 -0.0000 -0.9561
vn -0.0990 -0.0000 -0.9951
vn -0.9577 -0.0000 0.2876
vn -0.9577 -0.0000 -0.2876
vn 0.4750 -0.0000 -0.8800
vn 0.9577 -0.0000 -0.2876
vn 0.9577 -0.0000 0.2876
vn 0.4750 -0.0000 0.8800
vt 0.375000 0.178310
vt 0.375000 0.010519
vt 0.625000 0.010519
vt 0.625000 0.178310
vt 0.197023 0.728340
vt 0.181895 0.736425
vt 0.165481 0.741405
vt 0.148410 0.743086
vt 0.131340 0.741405
vt 0.125000 0.739481
vt 0.125000 0.571690
vt 0.131340 0.569767
vt 0.148410 0.568086
vt 0.165481 0.569767
vt 0.181895 0.574746
vt 0.197023 0.582832
vt 0.210282 0.593714
vt 0.221164 0.606974
vt 0.229250 0.622101
vt 0.234229 0.638516
vt 0.235910 0.655586
vt 0.234229 0.672656
vt 0.229250 0.689071
vt 0.221164 0.704198
vt 0.210282 0.717458
vt 0.765771 0.638516
vt 0.770750 0.622101
vt 0.778836 0.606974
vt 0.789718 0.593714
vt 0.802977 0.582832
vt 0.818105 0.574746
vt 0.834519 0.569767
vt 0.851590 0.568086
vt 0.868660 0.569767
vt 0.875000 0.571690
vt 0.875000 0.739481
vt 0.868660 0.741405
vt 0.851590 0.743086
vt 0.834519 0.741405
vt 0.818105 0.736425
vt 0.802977 0.728340
vt 0.789718 0.717458
vt 0.778836 0.704198
vt 0.770750 0.689071
vt 0.765771 0.672656
vt 0.764090 0.655586
vt 0.968750 0.635779
vt 1.000000 0.635779
vt 1.000000 0.885779
vt 0.968750 0.885779
vt 0.937500 0.635779
vt 0.937500 0.885779
vt 0.906250 0.635779
vt 0.906250 0.885779
vt 0.875000 0.635779
vt 0.875000 0.885779
vt 0.843750 0.885779
vt 0.843750 0.635779
vt 0.812500 0.885779
vt 0.812500 0.635779
vt 0.781250 0.885779
vt 0.781250 0.635779
vt 0.750000 0.885779
vt 0.750000 0.635779
vt 0.718750 0.885779
vt 0.718750 0.635779
vt 0.687500 0.885779
vt 0.687500 0.635779
vt 0.656250 0.885779
vt 0.656250 0.635779
vt 0.625000 0.885779
vt 0.625000 0.635779
vt 0.593750 0.885779
vt 0.593750 0.635779
vt 0.562500 0.885779
vt 0.562500 0.635779
vt 0.531250 0.885779
vt 0.531250 0.635779
vt 0.500000 0.885779
vt 0.500000 0.635779
vt 0.468750 0.885779
vt 0.468750 0.635779
vt 0.456680 0.885779
vt 0.456680 0.635779
vt 0.043320 0.885779
vt 0.031250 0.885779
vt 0.031250 0.635779
vt 0.043320 0.635779
vt 0.000000 0.635779
vt 0.000000 0.885779
vt 0.811872 0.686872
vt 0.875000 0.750000
vt 0.625000 0.750000
vt 0.688128 0.686872
vt 0.701388 0.697754
vt 0.716515 0.705839
vt 0.732930 0.710819
vt 0.750000 0.712500
vt 0.767070 0.710819
vt 0.783485 0.705839
vt 0.798612 0.697754
vt 0.625000 0.500000
vt 0.875000 0.500000
vt 0.822753 0.673612
vt 0.830839 0.658485
vt 0.835819 0.642070
vt 0.837500 0.625000
vt 0.835819 0.607930
vt 0.830839 0.591515
vt 0.822754 0.576388
vt 0.811872 0.563128
vt 0.798612 0.552246
vt 0.783485 0.544161
vt 0.767070 0.539181
vt 0.750000 0.537500
vt 0.732930 0.539181
vt 0.716515 0.544161
vt 0.701388 0.552246
vt 0.688128 0.563128
vt 0.677246 0.576388
vt 0.669161 0.591515
vt 0.664181 0.607930
vt 0.662500 0.625000
vt 0.664181 0.642070
vt 0.669160 0.658485
vt 0.677246 0.673612
vt 0.375000 0.750000
vt 0.625000 1.000000
vt 0.375000 1.000000
vt 0.375000 0.000000
vt 0.625000 0.000000
vt 0.625000 0.250000
vt 0.375000 0.250000
vt 0.125000 0.500000
vt 0.375000 0.500000
vt 0.311872 0.563128
vt 0.298612 0.552246
vt 0.283485 0.544161
vt 0.267070 0.539181
vt 0.250000 0.537500
vt 0.232930 0.539181
vt 0.216515 0.544161
vt 0.201388 0.552246
vt 0.188128 0.563128
vt 0.125000 0.750000
vt 0.177246 0.576388
vt 0.169161 0.591515
vt 0.164181 0.607930
vt 0.162500 0.625000
vt 0.164181 0.642070
vt 0.169161 0.658485
vt 0.177246 0.673612
vt 0.188128 0.686872
vt 0.201388 0.697754
vt 0.216515 0.705839
vt 0.232930 0.710819
vt 0.250000 0.712500
vt 0.267070 0.710819
vt 0.283485 0.705839
vt 0.298612 0.697754
vt 0.311872 0.686872
vt 0.322754 0.673612
vt 0.330839 0.658485
vt 0.335819 0.642070
vt 0.337500 0.625000
vt 0.335819 0.607930
vt 0.330839 0.591515
vt 0.322754 0.576388
vt 1.000000 0.875000
vt 1.000000 1.000000
vt 0.968750 1.000000
vt 0.968750 0.875000
vt 0.968750 0.500000
vt 1.000000 0.500000
vt 1.000000 0.625000
vt 0.968750 0.625000
vt 0.937500 1.000000
vt 0.937500 0.875000
vt 0.937500 0.500000
vt 0.937500 0.625000
vt 0.906250 1.000000
vt 0.906250 0.875000
vt 0.906250 0.500000
vt 0.906250 0.625000
vt 0.875000 1.000000
vt 0.875000 0.875000
vt 0.875000 0.625000
vt 0.843750 1.000000
vt 0.843750 0.875000
vt 0.843750 0.625000
vt 0.843750 0.500000
vt 0.812500 1.000000
vt 0.812500 0.875000
vt 0.812500 0.625000
vt 0.812500 0.500000
vt 0.781250 1.000000
vt 0.781250 0.875000
vt 0.781250 0.625000
vt 0.781250 0.500000
vt 0.750000 1.000000
vt 0.750000 0.875000
vt 0.750000 0.625000
vt 0.750000 0.500000
vt 0.718750 1.000000
vt 0.718750 0.875000
vt 0.718750 0.625000
vt 0.718750 0.500000
vt 0.687500 1.000000
vt 0.687500 0.875000
vt 0.687500 0.625000
vt 0.687500 0.500000
vt 0.656250 1.000000
vt 0.656250 0.875000
vt 0.656250 0.625000
vt 0.656250 0.500000
vt 0.625000 0.875000
vt 0.625000 0.625000
vt 0.593750 1.000000
vt 0.593750 0.875000
vt 0.593750 0.625000
vt 0.593750 0.500000
vt 0.562500 1.000000
vt 0.562500 0.875000
vt 0.562500 0.625000
vt 0.562500 0.500000
vt 0.531250 1.000000
vt 0.531250 0.875000
vt 0.531250 0.625000
vt 0.531250 0.500000
vt 0.500000 1.000000
vt 0.500000 0.875000
vt 0.500000 0.625000
vt 0.500000 0.500000
vt 0.468750 1.000000
vt 0.468750 0.875000
vt 0.468750 0.625000
vt 0.468750 0.500000
vt 0.437500 1.000000
vt 0.437500 0.875000
vt 0.437500 0.625000
vt 0.437500 0.500000
vt 0.406250 1.000000
vt 0.406250 0.875000
vt 0.406250 0.625000
vt 0.406250 0.500000
vt 0.375000 0.875000
vt 0.375000 0.625000
vt 0.343750 1.000000
vt 0.343750 0.875000
vt 0.343750 0.500000
vt 0.343750 0.625000
vt 0.312500 1.000000
vt 0.312500 0.875000
vt 0.312500 0.500000
vt 0.312500 0.625000
vt 0.281250 1.000000
vt 0.281250 0.875000
vt 0.281250 0.500000
vt 0.281250 0.625000
vt 0.250000 1.000000
vt 0.250000 0.875000
vt 0.250000 0.500000
vt 0.250000 0.625000
vt 0.218750 1.000000
vt 0.218750 0.875000
vt 0.218750 0.500000
vt 0.218750 0.625000
vt 0.187500 1.000000
vt 0.187500 0.875000
vt 0.187500 0.500000
vt 0.187500 0.625000
vt 0.156250 1.000000
vt 0.156250 0.875000
vt 0.156250 0.500000
vt 0.156250 0.625000
vt 0.125000 1.000000
vt 0.125000 0.875000
vt 0.125000 0.625000
vt 0.093750 1.000000
vt 0.093750 0.875000
vt 0.093750 0.500000
vt 0.093750 0.625000
vt 0.062500 1.000000
vt 0.062500 0.875000
vt 0.062500 0.500000
vt 0.062500 0.625000
vt 0.419706 0.419706
vt 0.383337 0.449553
vt 0.341844 0.471731
vt 0.296822 0.485388
vt 0.250000 0.490000
vt 0.050447 0.383337
vt 0.028269 0.341844
vt 0.014612 0.296822
vt 0.010000 0.250000
vt 0.014612 0.203178
vt 0.028269 0.158156
vt 0.050447 0.116663
vt 0.080294 0.080294
vt 0.116663 0.050447
vt 0.158156 0.028269
vt 0.203178 0.014612
vt 0.250000 0.010000
vt 0.296822 0.014612
vt 0.341844 0.028269
vt 0.383337 0.050447
vt 0.419706 0.080294
vt 0.449553 0.116663
vt 0.471731 0.158156
vt 0.485388 0.203178
vt 0.490000 0.250000
vt 0.485388 0.296822
vt 0.471731 0.341844
vt 0.449553 0.383337
vt 0.031250 1.000000
vt 0.031250 0.875000
vt 0.031250 0.500000
vt 0.031250 0.625000
vt 0.000000 1.000000
vt 0.000000 0.875000
vt 0.000000 0.500000
vt 0.000000 0.625000
vt 0.703178 0.485388
vt 0.750000 0.490000
vt 0.796822 0.485388
vt 0.841844 0.471731
vt 0.883337 0.449553
vt 0.919706 0.419706
vt 0.949553 0.383337
vt 0.971731 0.341844
vt 0.985388 0.296822
vt 0.990000 0.250000
vt 0.985388 0.203178
vt 0.971731 0.158156
vt 0.949553 0.116663
vt 0.919706 0.080294
vt 0.883337 0.050447
vt 0.841844 0.028269
vt 0.796822 0.014612
vt 0.750000 0.010000
vt 0.703178 0.014612
vt 0.658156 0.028269
vt 0.616663 0.050447
vt 0.580294 0.080294
vt 0.550447 0.116663
vt 0.528269 0.158156
vt 0.514612 0.203178
vt 0.510000 0.250000
vt 0.514612 0.296822
vt 0.528269 0.341844
s 0
usemtl 
f 3/1/1 4/2/1 2/3/1 1/4/1
f 21/5/2 8/6/2 10/7/2 5/8/2 6/9/2 4/10/2 3/11/2 7/12/2 12/13/2 11/14/2 9/15/2 23/16/2 15/17/2 13/18/2 20/19/2 19/20/2 17/21/2 18/22/2 16/23/2 22/24/2 14/25/2
f 30/26/3 31/27/3 32/28/3 28/29/3 29/30/3 33/31/3 25/32/3 26/33/3 27/34/3 1/35/3 2/36/3 24/37/3 35/38/3 34/39/3 36/40/3 37/41/3 42/42/3 38/43/3 39/44/3 41/45/3 40/46/3
f 11/47/4 12/48/4 26/49/4 25/50/4
f 9/51/5 11/47/5 25/50/5 33/52/5
f 23/53/6 9/51/6 33/52/6 29/54/6
f 15/55/7 23/53/7 29/54/7 28/56/7
f 32/57/8 13/58/8 15/55/8 28/56/8
f 31/59/9 20/60/9 13/58/9 32/57/9
f 30/61/10 19/62/10 20/60/10 31/59/10
f 40/63/11 17/64/11 19/62/11 30/61/11
f 41/65/12 18/66/12 17/64/12 40/63/12
f 39/67/13 16/68/13 18/66/13 41/65/13
f 38/69/14 22/70/14 16/68/14 39/67/14
f 42/71/15 14/72/15 22/70/15 38/69/15
f 37/73/16 21/74/16 14/72/16 42/71/16
f 36/75/17 8/76/17 21/74/17 37/73/17
f 34/77/18 10/78/18 8/76/18 36/75/18
f 35/79/19 5/80/19 10/78/19 34/77/19
f 24/81/20 6/82/20 5/80/20 35/79/20
f 2/83/21 4/84/21 6/82/21 24/81/21
f 1/85/22 27/86/22 7/87/22 3/88/22
f 12/89/23 7/87/23 27/86/23 26/90/23
f 179/130/1 180/131/1 182/132/1 181/133/1
f 181/133/26 182/132/26 186/102/26 185/135/26
f 185/135/25 186/102/25 184/93/25 183/127/25
f 183/127/24 184/93/24 180/128/24 179/129/24
f 181/134/2 185/135/2 203/136/2 192/137/2 193/138/2 191/139/2 195/140/2 189/141/2 190/142/2 188/143/2 187/144/2
f 203/136/2 185/135/2 183/127/2 179/145/2 181/134/2 187/144/2 208/146/2 211/147/2 206/148/2 204/149/2 205/150/2 210/151/2 207/152/2 209/153/2 212/154/2 214/155/2 213/156/2 218/157/2 215/158/2 217/159/2 216/160/2 194/161/2 196/162/2 201/163/2 199/164/2 198/165/2 200/166/2 202/167/2 197/168/2
f 224/91/3 180/92/3 184/93/3 250/94/3 240/95/3 241/96/3 239/97/3 242/98/3 237/99/3 238/100/3 236/101/3
f 184/93/3 186/102/3 182/103/3 180/92/3 224/91/3 222/104/3 225/105/3 221/106/3 219/107/3 220/108/3 226/109/3 223/110/3 235/111/3 227/112/3 229/113/3 228/114/3 234/115/3 230/116/3 233/117/3 232/118/3 231/119/3 244/120/3 249/121/3 247/122/3 245/123/3 246/124/3 248/125/3 243/126/3 250/94/3
f 234/169/43 195/175/43 191/176/43 230/172/43
f 230/172/44 191/176/44 193/180/44 233/178/44
f 233/178/45 193/180/45 192/184/45 232/182/45
f 232/182/46 192/184/46 203/187/46 231/186/46
f 203/187/47 197/190/47 244/189/47 231/186/47
f 197/190/48 202/194/48 249/193/48 244/189/48
f 202/194/59 200/198/59 247/197/59 249/193/59
f 200/198/50 198/202/50 245/201/50 247/197/50
f 198/202/51 199/206/51 246/205/51 245/201/51
f 199/206/60 201/210/60 248/209/60 246/205/60
f 201/210/53 196/214/53 243/213/53 248/209/53
f 196/214/54 194/217/54 250/216/54 243/213/54
f 194/217/55 216/220/55 240/219/55 250/216/55
f 216/220/56 217/224/56 241/223/56 240/219/56
f 217/224/57 215/228/57 239/227/57 241/223/57
f 215/228/58 218/232/58 242/231/58 239/227/58
f 218/232/27 213/236/27 237/235/27 242/231/27
f 213/236/28 214/240/28 238/239/28 237/235/28
f 214/240/61 212/244/61 236/243/61 238/239/61
f 212/244/30 209/247/30 224/246/30 236/243/30
f 224/246/31 209/247/31 207/251/31 222/249/31
f 222/249/32 207/251/32 210/255/32 225/253/32
f 225/253/62 210/255/62 205/259/62 221/257/62
f 221/257/34 205/259/34 204/263/34 219/261/34
f 219/261/35 204/263/35 206/267/35 220/265/35
f 220/265/63 206/267/63 211/271/63 226/269/63
f 226/269/37 211/271/37 208/275/37 223/273/37
f 223/273/38 208/275/38 187/278/38 235/277/38
f 235/277/39 187/278/39 188/282/39 227/280/39
f 227/280/64 188/282/64 190/286/64 229/284/64
f 229/284/41 190/286/41 189/318/41 228/316/41
f 228/316/42 189/318/42 195/322/42 234/320/42
usemtl Material
f 120/91/3 55/92/3 47/93/3 146/94/3 136/95/3 137/96/3 135/97/3 138/98/3 133/99/3 134/100/3 132/101/3
f 47/93/3 43/102/3 51/103/3 55/92/3 120/91/3 118/104/3 121/105/3 117/106/3 115/107/3 116/108/3 122/109/3 119/110/3 131/111/3 123/112/3 125/113/3 124/114/3 130/115/3 126/116/3 129/117/3 128/118/3 127/119/3 140/120/3 145/121/3 143/122/3 141/123/3 142/124/3 144/125/3 139/126/3 146/94/3
f 49/127/24 47/93/24 55/128/24 57/129/24
f 57/130/1 55/131/1 51/132/1 53/133/1
f 53/134/2 45/135/2 163/136/2 152/137/2 153/138/2 151/139/2 155/140/2 149/141/2 150/142/2 148/143/2 147/144/2
f 163/136/2 45/135/2 49/127/2 57/145/2 53/134/2 147/144/2 168/146/2 171/147/2 166/148/2 164/149/2 165/150/2 170/151/2 167/152/2 169/153/2 172/154/2 174/155/2 173/156/2 178/157/2 175/158/2 177/159/2 176/160/2 154/161/2 156/162/2 161/163/2 159/164/2 158/165/2 160/166/2 162/167/2 157/168/2
f 45/135/25 43/102/25 47/93/25 49/127/25
f 53/133/26 51/132/26 43/102/26 45/135/26
f 130/169/27 46/170/27 50/171/27 126/172/27
f 48/173/27 44/174/27 155/175/27 151/176/27
f 126/172/28 50/171/28 54/177/28 129/178/28
f 52/179/28 48/173/28 151/176/28 153/180/28
f 129/178/29 54/177/29 58/181/29 128/182/29
f 56/183/29 52/179/29 153/180/29 152/184/29
f 128/182/30 58/181/30 60/185/30 127/186/30
f 59/103/30 56/183/30 152/184/30 163/187/30
f 127/186/31 60/185/31 62/188/31 140/189/31
f 157/190/31 61/191/31 59/103/31 163/187/31
f 140/189/32 62/188/32 64/192/32 145/193/32
f 162/194/32 63/195/32 61/191/32 157/190/32
f 145/193/33 64/192/33 66/196/33 143/197/33
f 160/198/33 65/199/33 63/195/33 162/194/33
f 143/197/34 66/196/34 68/200/34 141/201/34
f 158/202/34 67/203/34 65/199/34 160/198/34
f 141/201/35 68/200/35 70/204/35 142/205/35
f 159/206/35 69/207/35 67/203/35 158/202/35
f 142/205/36 70/204/36 72/208/36 144/209/36
f 161/210/36 71/211/36 69/207/36 159/206/36
f 144/209/37 72/208/37 74/212/37 139/213/37
f 156/214/37 73/215/37 71/211/37 161/210/37
f 139/213/38 74/212/38 76/128/38 146/216/38
f 154/217/38 75/102/38 73/215/38 156/214/38
f 146/216/39 76/128/39 78/218/39 136/219/39
f 176/220/39 77/221/39 75/102/39 154/217/39
f 136/219/40 78/218/40 80/222/40 137/223/40
f 177/224/40 79/225/40 77/221/40 176/220/40
f 137/223/41 80/222/41 82/226/41 135/227/41
f 175/228/41 81/229/41 79/225/41 177/224/41
f 135/227/42 82/226/42 84/230/42 138/231/42
f 178/232/42 83/233/42 81/229/42 175/228/42
f 138/231/43 84/230/43 86/234/43 133/235/43
f 173/236/43 85/237/43 83/233/43 178/232/43
f 133/235/44 86/234/44 88/238/44 134/239/44
f 174/240/44 87/241/44 85/237/44 173/236/44
f 134/239/45 88/238/45 90/242/45 132/243/45
f 172/244/45 89/245/45 87/241/45 174/240/45
f 132/243/46 90/242/46 92/129/46 120/246/46
f 169/247/46 91/135/46 89/245/46 172/244/46
f 120/246/47 92/129/47 94/248/47 118/249/47
f 93/250/47 91/135/47 169/247/47 167/251/47
f 118/249/48 94/248/48 96/252/48 121/253/48
f 95/254/48 93/250/48 167/251/48 170/255/48
f 121/253/49 96/252/49 98/256/49 117/257/49
f 97/258/49 95/254/49 170/255/49 165/259/49
f 117/257/50 98/256/50 100/260/50 115/261/50
f 99/262/50 97/258/50 165/259/50 164/263/50
f 115/261/51 100/260/51 102/264/51 116/265/51
f 101/266/51 99/262/51 164/263/51 166/267/51
f 116/265/52 102/264/52 104/268/52 122/269/52
f 103/270/52 101/266/52 166/267/52 171/271/52
f 122/269/53 104/268/53 106/272/53 119/273/53
f 105/274/53 103/270/53 171/271/53 168/275/53
f 119/273/54 106/272/54 108/276/54 131/277/54
f 107/134/54 105/274/54 168/275/54 147/278/54
f 131/277/55 108/276/55 110/279/55 123/280/55
f 109/281/55 107/134/55 147/278/55 148/282/55
f 123/280/56 110/279/56 112/283/56 125/284/56
f 111/285/56 109/281/56 148/282/56 150/286/56
f 60/287/3 58/288/3 54/289/3 50/290/3 46/291/3 114/292/3 112/293/3 110/294/3 108/295/3 106/296/3 104/297/3 102/298/3 100/299/3 98/300/3 96/301/3 94/302/3 92/303/3 90/304/3 88/305/3 86/306/3 84/307/3 82/308/3 80/309/3 78/310/3 76/311/3 74/312/3 72/313/3 70/314/3 68/287/3 66/288/3 64/289/3 62/290/3
f 125/284/57 112/283/57 114/315/57 124/316/57
f 113/317/57 111/285/57 150/286/57 149/318/57
f 124/316/58 114/315/58 46/319/58 130/320/58
f 44/321/58 113/317/58 149/318/58 155/322/58
f 113/323/2 44/324/2 48/325/2 52/326/2 56/327/2 59/324/2 61/325/2 63/326/2 65/327/2 67/328/2 69/329/2 71/330/2 73/331/2 75/332/2 77/333/2 79/334/2 81/335/2 83/336/2 85/337/2 87/338/2 89/339/2 91/340/2 93/341/2 95/342/2 97/343/2 99/344/2 101/345/2 103/346/2 105/347/2 107/348/2 109/349/2 111/350/2
